<svg xmlns="http://www.w3.org/2000/svg" xmlns:xlink="http://www.w3.org/1999/xlink" width="666.79" height="169.105" viewBox="0 0 666.79 169.105">
  <defs>
    <filter id="パス_1084" x="0" y="0" width="666.79" height="169.105" filterUnits="userSpaceOnUse">
      <feOffset dy="3" input="SourceAlpha"/>
      <feGaussianBlur stdDeviation="3" result="blur"/>
      <feFlood flood-opacity="0.549"/>
      <feComposite operator="in" in2="blur"/>
      <feComposite in="SourceGraphic"/>
    </filter>
  </defs>
  <g transform="matrix(1, 0, 0, 1, 0, 0)" filter="url(#パス_1084)">
    <path id="パス_1084-2" data-name="パス 1084" d="M-659.4-26.345a7.272,7.272,0,0,0,3.52,1.485,4,4,0,0,0,2.31-.715l3.41-2.255a2.712,2.712,0,0,1,1.43-.55h.165a.158.158,0,0,1,.11.055h.11a.488.488,0,0,0,.22.055,18.7,18.7,0,0,1-1.32,4.4,54.929,54.929,0,0,1-3.63,5.665,42.58,42.58,0,0,1-2.97,4.015q-1.54,1.43-1.54,2.035a1.761,1.761,0,0,0,.44,1.1q1.76,2.09,2.42,2.09.55,0,2.31-1.485l2.09-1.7q.275-.22,1.1-.99.66-.605,1.1-.99-.055,1.705-.165,3.245a20.854,20.854,0,0,1-.22,2.365q-.275,2.2-.275,2.585a8,8,0,0,0,2.145,5.445A2.673,2.673,0,0,0-644.985.55q1.155,0,1.155-1.87,0-.44-.11-2.09-.055-.715-.11-1.375-.055-1.1-.11-2.255l-.275-5.995a11.211,11.211,0,0,1-.055-1.21v-2.53q0-.825.055-1.595.33-.495.935-1.32.6-.935.935-1.375a37.085,37.085,0,0,0,3.52-5.775l.33-.66q.275-.495.385-.66a.753.753,0,0,0,.275-.44.443.443,0,0,0-.22-.33,30.665,30.665,0,0,1-5.94,6.6,33.383,33.383,0,0,1,.44-3.85q.165-1.375.275-2.2a16.969,16.969,0,0,0,.11-1.7q0-1.87-2.255-1.87-2.365,0-7.37,2.695-2.2,1.155-3.41,1.65a19.885,19.885,0,0,1-2.97.99Zm8.69-8.47a.159.159,0,0,0,.11-.055,12.832,12.832,0,0,0,1.98-1.265,15.87,15.87,0,0,1,2.255-1.32l.44-.22a1.223,1.223,0,0,0,.385-.165,6.057,6.057,0,0,1,.825-.33,32.079,32.079,0,0,0,4.015-1.595,1.568,1.568,0,0,0,.88-1.32q0-2.585-4.95-2.585a16.2,16.2,0,0,0-5.555.88q0,.6.77.715a8.021,8.021,0,0,1,2.255.88q1.045.66,1.045,1.155,0,1.43-4.345,4.95Zm31.13-9.075q-2.365.495-3.52.825t-4.51,1.43l-8.91,2.97-.11.22q-.11.11.22.22a10.286,10.286,0,0,0,3.905.715,18.3,18.3,0,0,0,3.575-.385,11.688,11.688,0,0,0-2.365,2.97,18.557,18.557,0,0,0-2.255,8.47,7.823,7.823,0,0,0,1.265,4.18q1.265,2.09,2.53,2.09.935,0,.935-1.32a24.043,24.043,0,0,0-.825-5.5,19.7,19.7,0,0,1-.55-4.785,5.722,5.722,0,0,1,3.63-5.775q.66-.275,1.265-.55.66-.275,1.32-.495,1.375-.6,2.53-1.045l3.3-1.32Q-616-41.8-616-42.295t-1.1-.99A7.435,7.435,0,0,0-619.575-43.89Zm-16.17,24.64a10.207,10.207,0,0,0-.825,4.345,20.2,20.2,0,0,0,1.98,8.855q1.98,4.125,4.235,4.125,1.265,0,1.265-1.155a6.5,6.5,0,0,0-.715-2.64q-.55-1.265-1.155-2.475l-.44-.99q-.935-2.035-1.21-2.75l-2.75-7.2Zm1.815,1.65a9.613,9.613,0,0,0,4.125,1.21,17.017,17.017,0,0,0,3.85-.77,4.158,4.158,0,0,1,.715,1.87v.44a5.831,5.831,0,0,0-.055.66q-5.17,2.255-5.17,4.4,0,.99,1.87,2.53a14.78,14.78,0,0,0,1.21.99q.5.44,1.045.88L-627.6-1.98a14.478,14.478,0,0,0,3.025-2.365q4.345,2.64,7.535,2.64A3.751,3.751,0,0,0-614.13-3.08a17.931,17.931,0,0,0,3.135-5.72,20.783,20.783,0,0,0,1.32-6.71q0-5.775-8.58-5.775a31.857,31.857,0,0,0-6.765.715,81.958,81.958,0,0,0-8.965,2.64Zm4.18-14.85a7.6,7.6,0,0,0,2.42.77,4.609,4.609,0,0,0,2.8-.935,1.354,1.354,0,0,1,.495-.275q.33,0,.33.495,0,.825-3.85,5.17a3.012,3.012,0,0,0,.77,2.09l1.155-.11-.275.275-2.53,2.365v.385a53.4,53.4,0,0,1,8.635-4.84q1.76-.66,1.76-1.485,0-1.43-2.255-1.43h-.605q3.08-3.685,3.08-4.565,0-1.76-2.31-1.76a11.742,11.742,0,0,0-4.015.715,42.368,42.368,0,0,0-5.61,2.915Zm3.74,24.8q-3.08-1.155-3.08-2.2,0-.825,1.32-1.1a2.314,2.314,0,0,1,.55-.055q.275,0,1.595-.055h.22Zm2.75-10.45a11.152,11.152,0,0,1,4.84-1.155q3.63,0,3.63,3.52a15.758,15.758,0,0,1-.825,4.9,7.616,7.616,0,0,1-1.87,3.465,4.422,4.422,0,0,1-2.64,1.21,12.443,12.443,0,0,1-3.025-.385l1.87-5.17a9.473,9.473,0,0,1,1.045-.055h.715q2.915.165,2.915-1.155,0-1.98-3.905-2.42a2.623,2.623,0,0,0-.6-1.87A5.866,5.866,0,0,0-623.26-18.095Zm55.22-17.82a6.592,6.592,0,0,1,2.365.44q1.485.825,1.485,1.7,0,1.1-2.145,1.265a29.058,29.058,0,0,0-3.9.99v7.15a55.312,55.312,0,0,1,5.885-.33,24.912,24.912,0,0,1,2.97-.275,8.032,8.032,0,0,1,3.85,1.375q2.365,1.925,2.365,2.915-.22,1.265-1.265,1.265a29.139,29.139,0,0,1-4.455-.935,51.81,51.81,0,0,0-9.35-.935q-.055,4.4-.055,6.875-1.1,11.77-5.28,16.72a.194.194,0,0,1-.22-.22q.55-7.755.77-23.21a45.031,45.031,0,0,0-9.295,1.65q-.165,1.54-.275,3.08v4.07q-.385,3.025-1.54,3.025-1.54,0-2.75-3.08a16.939,16.939,0,0,1-.66-4.675v-.5a55.008,55.008,0,0,0-5.61,2.585,7.086,7.086,0,0,1-2.585.715,6.211,6.211,0,0,1-2.97-1.54,8.9,8.9,0,0,1-1.76-1.87q.055-.605.22-.66a3.829,3.829,0,0,0,1.54.44,18.554,18.554,0,0,0,4.9-1.1q3.3-1.045,6.435-1.815.33-3.465,1.1-8.305-.77-.11-1.87-.33a11.987,11.987,0,0,1-1.76-.5q.165-.385,1.485-.66,1.1-.385,2.475-.77.605-3.465,1.43-7.59.275-1.32.605-1.32.6,0,1.1,1.32.055,3.41.055,6.71.77-.165,1.6-.385l1.32-5.28a.194.194,0,0,1,.22.22q-.44,2.475-.88,4.895,3.245-.77,7.26-1.595a1.038,1.038,0,0,1,.33-.055V-38.5a23.414,23.414,0,0,0-.55-3.3q-.385-1.43-1.21-1.705-.825-.165-.825-.385a21.824,21.824,0,0,1,4.29-1.265q2.97,0,2.97,3.85v5.72A17.219,17.219,0,0,1-568.04-35.915Zm-6.985,12.1q.055-2.75.055-5.775a59.393,59.393,0,0,0-8.8,5.39q-.165,1.045-.275,2.09Q-579.26-23.155-575.025-23.815Zm-9.68-5.72v2.75l.77-2.97A3.044,3.044,0,0,1-584.705-29.535Zm1.76-.5q-.385,2.64-.715,5.17l8.69-6.985q-4.29.825-7.425,1.65A3.137,3.137,0,0,0-582.945-30.03Zm59.73,22.5h.99a13.535,13.535,0,0,0,8.91-2.86q6.105-5.06,6.105-13.75a12.505,12.505,0,0,0-3.575-8.745,14.474,14.474,0,0,0-11-5.005,20.926,20.926,0,0,0-13.7,4.785q-4.4,3.685-4.4,12.65a15.689,15.689,0,0,0,1.21,6.71q1.21,2.53,3.19,2.53,1.595,0,4.4-2.97a29.166,29.166,0,0,0,4.62-6.655,40.485,40.485,0,0,0,2.475-5.885,16.582,16.582,0,0,0,1.045-4.51,15.948,15.948,0,0,0-.88-3.795,10.222,10.222,0,0,1,2.585-.44,8.631,8.631,0,0,1,6.655,2.97,10.835,10.835,0,0,1,2.7,7.48A17.851,17.851,0,0,1-514.91-14.85a19.306,19.306,0,0,1-8.415,6.985Zm-2.035-26.95-.44,1.155-.44,1.1-.44,1.155a29.5,29.5,0,0,1-1.375,3.41,23.007,23.007,0,0,1-1.705,2.915,40.537,40.537,0,0,1-3.74,5.335q-1.7,2.035-2.475,2.035t-1.43-1.98a16.213,16.213,0,0,1-.605-4.62q0-4.51,2.53-5.72l3.025-1.265,3.63-2.035q.605-.275,1.375-.66Q-526.35-34.045-525.25-34.485ZM-487.8-6.27a7,7,0,0,0-.22,1.54,9.426,9.426,0,0,0,.385,3.3,1.327,1.327,0,0,0,1.375.825q.77,0,3.3-2.255a.36.36,0,0,1,.165-.165,6.094,6.094,0,0,1,4.235-1.87,5.472,5.472,0,0,1,3.41,1.045l3.96,2.97a2.233,2.233,0,0,0,2.8,0l4.565-2.97a10.025,10.025,0,0,1,5.665-1.76,7.122,7.122,0,0,1,2.75.88q-2.255,1.43-3.63,2.145-1.32.715-3.96,1.98l.055.275a25.743,25.743,0,0,1,9.955-2.31h.605q3.135.165,3.575.165,2.75,0,2.75-1.7,0-.88-1.925-2.035a15.48,15.48,0,0,0-7.92-2.145,26.69,26.69,0,0,0-4.4.275l-8.635,1.87a6.38,6.38,0,0,1-1.65.22,4.626,4.626,0,0,1-2.255-.605l-2.805-1.485q-.6-.22-2.145-.605a28.832,28.832,0,0,1,2.585-1.815,30.676,30.676,0,0,1,3.135-1.485q1.155-.495,2.64-1.1l1.32-.55,1.32-.55a2.135,2.135,0,0,1,.275-.11,1.388,1.388,0,0,0,.33-.165q.935-.385,1.54-.66,2.75,1.485,3.575,1.87a3.4,3.4,0,0,0,1.265.44q1.32,0,3.19-2.75a33.508,33.508,0,0,0,3.135-6.49,18.138,18.138,0,0,0,1.43-5.775q0-1.54-2.31-2.585a14.021,14.021,0,0,0-5.775-1.045q-2.145,0-4.345.22-2.145.275-6.1.935,4.51-2.75,5.995-3.795.6-.44,1.265-.88,1.87-1.32,1.98-1.43,2.09-1.21,2.09-2.2,0-2.255-3.85-2.255a9.492,9.492,0,0,0-2.31.275l-3.465.935q-.385.11-1.265.275a9.385,9.385,0,0,0,1.87-4.785,2.812,2.812,0,0,0-1.54-2.585,43.232,43.232,0,0,1-7.865,8.58,37.76,37.76,0,0,1-3.3,2.64,15.8,15.8,0,0,1-2.8,1.32v.165a6.553,6.553,0,0,0,.55,2.64q.55,1.32,1.1,1.32a9.119,9.119,0,0,0,2.8-1.705q2.255-1.595,4.455-2.915a33.439,33.439,0,0,1,3.795-2.09,14.276,14.276,0,0,1,3.96-1.155,16.621,16.621,0,0,1-2.915,3.85,59.8,59.8,0,0,1-5.72,5.335l-1.98.55-3.355.88a2.386,2.386,0,0,0,1.32.77l1.21.33a5.636,5.636,0,0,0,1.815.22A16.692,16.692,0,0,0-471.4-27.17a10.551,10.551,0,0,1,.77,3.08l-5.06,2.145-.055.275a9.278,9.278,0,0,0,4.07,1.21h.385a4.772,4.772,0,0,1,.66-.055,9.415,9.415,0,0,1,.11.99,5.839,5.839,0,0,1-.055.66,1.807,1.807,0,0,0-.055.44,11.437,11.437,0,0,1-4.84,1.925q-2.75-3.685-4.07-5.72t-3.52-6.05l-.495.11a3.271,3.271,0,0,0-.495,1.705,17.734,17.734,0,0,0,3.74,11.44q2.365,3.135,4.4,3.135,1.43,0,1.6-2.42a3.366,3.366,0,0,0,1.1.275q.33,0,1.265-.11h.165a35.888,35.888,0,0,1-7.315,4.9A40.111,40.111,0,0,1-487.8-6.27Zm19.305-21.89a10.247,10.247,0,0,1,3.465-1.045,43.605,43.605,0,0,1,4.565-.385q2.86,0,2.86,1.54a7.731,7.731,0,0,1-.99,3.245l-1.76,3.52q-.22.495-1.98,3.135a9.083,9.083,0,0,0-2.035-.33,14.848,14.848,0,0,0-2.255.22l.22-1.32.66-.5a50.044,50.044,0,0,0,4.015-3.19,2.673,2.673,0,0,0,1.045-1.65q0-1.21-2.035-1.21a22.012,22.012,0,0,0-2.97.33,3.722,3.722,0,0,0-.88-1.595A5.965,5.965,0,0,0-468.49-28.16Zm50.765-.22a37.582,37.582,0,0,0-5.28,5.61,7.371,7.371,0,0,0-1.54,4.18q0,3.52,3.96,5.995a17.594,17.594,0,0,0,9.515,2.475,8.988,8.988,0,0,0,3.245-.55q1.375-.55,1.375-1.265,0-.55-1.485-1.7a5.984,5.984,0,0,0-2.7-1.21l-4.785-.165-.6-.165-.825-.165a5.087,5.087,0,0,1-2.42-1.43,3.236,3.236,0,0,1-1.045-2.2q0-3.08,3.465-6.16a27.647,27.647,0,0,1,8.47-5.445,30.864,30.864,0,0,0,5.06-2.255,2.188,2.188,0,0,0,1.155-1.815,2.208,2.208,0,0,0-1.045-1.595q-2.86-2.09-4.785-2.09a1.266,1.266,0,0,0-.495.165,3.935,3.935,0,0,1,.55,1.265q0,1.155-2.365,2.86a.64.64,0,0,1-.165.11,20.1,20.1,0,0,0-1.705,1.21q-1.155.77-2.145,1.54A6.789,6.789,0,0,1-418-35.09l-1.045-3.465a6.363,6.363,0,0,0-3.355-3.96,2.209,2.209,0,0,0-.22.88,11.858,11.858,0,0,0,.055,1.265l.44,4.95a12.46,12.46,0,0,0,1.32,4.455A6.1,6.1,0,0,0-417.725-28.38Zm34.375,5.72v.33q.66.055,1.32.055.715.055,1.1.055,5.005,0,11.44-6.49l3.245-3.245a48.811,48.811,0,0,0,3.63-3.905l4.565-5.885a5.5,5.5,0,0,0,1.32-2.475q0-.6-.935-1.375a4.591,4.591,0,0,0-1.98-.99l-2.255-.44h-.055l-.055-.055h-.11a1.463,1.463,0,0,0-.66.275,6.776,6.776,0,0,1,.88,2.255q0,.99-2.145,3.63l-4.62,5.555q-2.86,3.52-4.07,4.73t-4.51,3.9A36.774,36.774,0,0,1-383.35-22.66Zm12.265-3.08q2.2,1.21,2.2,2.475v.605q-.165,3.41-.33,4.73l-.77,9.185q-.055.495-.11,1.045v1.045a12.3,12.3,0,0,0,1.32,5.775q1.265,2.475,2.97,2.475,3.08,0,11.55-9.46.825.605,1.6,1.1.55.385,1.155.77,1.045.6,1.045,1.045,0,1.045-4.29,3.575v.33q2.035-1.155,2.915-1.54a7.423,7.423,0,0,1,1.98-.33h1.43a1.808,1.808,0,0,1,.44-.055,4,4,0,0,1,1.155.165l.99.22a13.764,13.764,0,0,0,1.54.275,1.118,1.118,0,0,0,1.265-1.265,3.961,3.961,0,0,0-1.98-3.135,50.357,50.357,0,0,0-7.81-3.85l.77-2.09a15.814,15.814,0,0,1-1.815,1.76l-3.19-.99a73.937,73.937,0,0,0,7.755-2.585q4.07-1.595,4.07-2.75,0-.825-1.76-1.76a13.4,13.4,0,0,0-4.18-.88l-.11.22a3.342,3.342,0,0,1,.44.935q0,.825-1.43,1.98a23.914,23.914,0,0,1-3.19,2.09,28.623,28.623,0,0,0-3.465,2.255,4.223,4.223,0,0,1-.77-.22h-.055a14.031,14.031,0,0,0-3.41-.55q-1.265,0-1.265.66a.049.049,0,0,0,.055.055v.11h.055v.055q1.925.55,3.63,1.21,1.925.77,4.565,2.09A38.406,38.406,0,0,1-362.12-5.06l-2.09.99a.158.158,0,0,0-.11.055.158.158,0,0,0-.11.055l-.22.11a1.531,1.531,0,0,1-.33.11q-1.21,0-1.21-2.2a9.124,9.124,0,0,1,.055-1.1,11.776,11.776,0,0,0,.165-1.375,7.549,7.549,0,0,1,.055-.935q.11-1.87.66-5.225a3.87,3.87,0,0,0,1.375.33,3.351,3.351,0,0,0,.935-.165l1.705-.605,1.76-.44a22.8,22.8,0,0,1,2.915-.77,13.186,13.186,0,0,0,2.75-.55.883.883,0,0,0,.605-.825q0-.275-.66-.935l1.43-2.475q2.8-4.565,2.8-6.27,0-2.53-3.41-2.53Q-359.535-29.81-371.085-25.74Zm5.225,1.595q2.31-.825,2.8-1.045l4.18-1.87a7.68,7.68,0,0,1,3.025-.715q.77,0,.77.66a5.855,5.855,0,0,1-.66,2.035l-1.925,4.07q-.165.385-.99,1.87-.22.385-.385.715a15.564,15.564,0,0,0-1.65.165q-.44.11-1.54.33a1.038,1.038,0,0,0-.33.055,6.581,6.581,0,0,0,.715-.715q1.595-1.54,2.475-2.475a21.9,21.9,0,0,1,1.6-1.54q.935-.825.935-1.32,0-1.21-1.815-1.21-1.43,0-6.435,1.925A5.426,5.426,0,0,0-365.86-24.145Zm1.375,5.94a20.659,20.659,0,0,0,.165-2.2v-.935a13.476,13.476,0,0,0,2.31.33A22.821,22.821,0,0,1-364.485-18.2Zm-.055-15.345v.33q.11.385,1.1.66,1.54.385,1.54,1.21,0,.33-.66.77a13.391,13.391,0,0,0-1.6,1.485l.055.22a7.819,7.819,0,0,1,4.235-1.43,12.673,12.673,0,0,0,2.695-.22q1.32-.495,1.32-1.43a2.294,2.294,0,0,0-1.32-1.87,5.5,5.5,0,0,0-3.025-.88A9.076,9.076,0,0,0-364.54-33.55Zm4.95-4.345-.055.22-.055.055q0,.44,1.65.935a51.44,51.44,0,0,1,9.02,3.96l1.6.88q2.09,1.155,3.025,1.76a25.562,25.562,0,0,1,2.2,1.595l-3.9.385v.33q.22.055.495.11,1.65.495,2.145.6a.224.224,0,0,1,.165.055,10.515,10.515,0,0,1,2.475.88,17.993,17.993,0,0,1,2.75,1.32,7.33,7.33,0,0,0,2.915,1.045q1.76,0,1.76-1.87,0-1.485-2.365-3.685a23.238,23.238,0,0,0-5.83-3.96,67.29,67.29,0,0,0-8.8-3.41q-2.365-.77-4.235-1.21a15.1,15.1,0,0,0-2.97-.44A8.952,8.952,0,0,0-359.59-37.9Zm32.23,10.67a21.831,21.831,0,0,0,4.84.825,20.844,20.844,0,0,0,5.39-1.1l-2.035,3.85q-3.08,5.775-5.83,8.14-1.65,1.32-1.65,2.2a2.694,2.694,0,0,0,.935,1.87,2.566,2.566,0,0,0,1.87.935,3.307,3.307,0,0,0,.55-.11,37.192,37.192,0,0,0,3.19-2.75l1.98-2.09q.715-.715,1.32-1.375,0,.88-.055,1.76,0,1.045-.055,2.145v1.6a8.019,8.019,0,0,1-.055,1.21l-.495,3.795v.055l.11.11a.641.641,0,0,1,.11.165,1.388,1.388,0,0,0,.165.33q.33.55.715,1.155.165.22.275.385,1.375,1.925,2.09,1.925.77,0,1.32-1.045a5.874,5.874,0,0,0,.495-2.53v-.66l-.88-7.2-.055-5.28-.055-.77q0-.22.055-.935a1.039,1.039,0,0,0,.055-.33q1.925-2.09,2.8-3.19.935-1.265,2.475-3.63a2.8,2.8,0,0,0-1.21.77,23.888,23.888,0,0,1-3.9,3.135q.11-1.87.165-2.75.11-1.045.385-2.64l.22-.11a.422.422,0,0,0,.165-.055,2.135,2.135,0,0,0,.275-.11.422.422,0,0,1,.165-.055.049.049,0,0,0,.055-.055h.055l3.135-1.1q1.65-.66,1.65-1.32,0-.44-.935-1.045a4.474,4.474,0,0,0-2.7-.88,4.2,4.2,0,0,0-1.485.385q.055-.495.165-1.375a2.548,2.548,0,0,1,.055-.495,12.085,12.085,0,0,0,.22-1.43,1.039,1.039,0,0,0,.055-.33.612.612,0,0,0,.055-.275q.22-1.375.33-2.09.055-.6.055-.99,0-3.465-4.18-6.05l-.385,4.29-.825,10.285q-3.41,1.54-5.39,2.31-1.925.825-5.775,2.255Zm17.38,15.51.33.275a14.251,14.251,0,0,0,6.6-1.7,53.759,53.759,0,0,0,8.69-6.38l.11,9.24-.22.99-1.485-.165h-.11A18.847,18.847,0,0,1-294.8-6.765l1.485,4.455q.715,2.255,1.87,2.255a1.742,1.742,0,0,0,1.485-1.1,5.209,5.209,0,0,0,.6-2.64v-.22l-.495-9.185-.495-9.955a5.016,5.016,0,0,0,1.375-2.585q0-.715-1.265-1.54l.165-3.19a19.817,19.817,0,0,1,3.465-.385q3.465.11,3.465-1.155t-2.255-2.365a4.9,4.9,0,0,0-1.87-.44,14.655,14.655,0,0,0-2.42.275,33.345,33.345,0,0,0,.605-5.28,5.986,5.986,0,0,0-1.815-4.29,12.662,12.662,0,0,0-2.255-1.76,4.941,4.941,0,0,0-1.98-.88,2.609,2.609,0,0,0-1.1.385,14.9,14.9,0,0,1,1.76,7.59q0,.88-.055,2.145v1.265q0,.66-.055,1.32v.605q-1.32.33-2.2.6l-2.8.935a5.442,5.442,0,0,0-.825.275q-2.53.88-3.63,1.375-1.1.55-3.025,1.76l.055.055h.055v.055h.055a.049.049,0,0,0,.055.055h.055v.055h2.97l3.96.275q.055,0,1.925-.715l.55-.22a19.231,19.231,0,0,1,2.7-.66v.055a2.33,2.33,0,0,1,.11.55v.33a.159.159,0,0,0-.055.11v.385l-1.65.55v.275q.88.66.88,1.155,0,.605-2.42,3.41l-2.97,3.355a35.987,35.987,0,0,1-3.355,3.245Q-306.24-14.41-309.98-11.715Zm50.105-30.03a4.01,4.01,0,0,1,.055.66,1.039,1.039,0,0,0,.055.33v.22a21.309,21.309,0,0,1-.6,4.235l-1.43,6.71a50.629,50.629,0,0,0-1.045,10.945,35.4,35.4,0,0,0,.495,6.49l.11.66q1.155,6.38,3.9,6.38a1.252,1.252,0,0,0,1.155-.935,13.611,13.611,0,0,0,.66-3.41l.55-5.555a11.7,11.7,0,0,1,.275-1.87l.11-.77q.385-2.035.44-2.585a10.664,10.664,0,0,1,.33-1.7,1.471,1.471,0,0,0,.11-.55,3.307,3.307,0,0,0-.11-.55l-.77,2.86a33.657,33.657,0,0,1-1.045,3.52,23.9,23.9,0,0,1-1.375,2.75h-.275q-.385-2.035-.55-3.245-.11-1.155-.11-2.805a39.186,39.186,0,0,1,.55-7.04l1.21-7.26a6.879,6.879,0,0,0,.22-1.485,9.679,9.679,0,0,0-1.21-4.18,6.256,6.256,0,0,0-.825-1.485A1.393,1.393,0,0,0-259.875-41.745Zm11.33,9.735a5.372,5.372,0,0,0,3.465,1.1h.715a7.245,7.245,0,0,0,.99-.055,15.726,15.726,0,0,1-1.705,2.86h.385a18.919,18.919,0,0,1,5.94-4.07l2.7-.88q1.43-.495,1.43-1.265,0-.55-1.1-1.265a3.659,3.659,0,0,0-1.98-.55,5.439,5.439,0,0,0-1.815.33q-.66.275-2.365.935-1.265.55-2.585,1.1a9.088,9.088,0,0,1-2.64.935A1.753,1.753,0,0,0-248.545-32.01Zm3.575,9.79a1.632,1.632,0,0,0-.715,1.43A6.18,6.18,0,0,0-243.87-15.9a12.221,12.221,0,0,0,8.25,3.355q2.53,0,2.53-1.265a2.9,2.9,0,0,0-.99-1.65,7.894,7.894,0,0,0-2.255-1.705l-3.245-.66Q-242.6-18.425-244.97-22.22Zm43.4-18.48h-.11q-.275,0-.275.44a5.258,5.258,0,0,0,1.1,3.19,4.954,4.954,0,0,0,2.75,1.925A13.963,13.963,0,0,1-195.3-34.1a1.278,1.278,0,0,1,.6,1.155q0,.99-1.925,3.685-4.675,6.655-4.675,11.495,0,3.355,3.85,6.105a14.706,14.706,0,0,0,8.635,2.695q2.7,0,2.7-1.485,0-1.76-2.64-3.245a9.845,9.845,0,0,0-1.21-.66.049.049,0,0,1-.055-.055h-.055l-2.86-.33a8.547,8.547,0,0,1-2.2-.99,14.643,14.643,0,0,1-2.365-1.65,4.455,4.455,0,0,1-1.485-3.3q0-4.015,3.905-7.645a19.665,19.665,0,0,1,6.71-3.63Q-187-32.4-187-33.275q0-1.485-2.2-3.025a8.729,8.729,0,0,0-2.145-1.045A34.628,34.628,0,0,0-195.14-38a11.9,11.9,0,0,1-3.465-.77A13.7,13.7,0,0,1-201.575-40.7Zm46.97,9.46a.751.751,0,0,0-.33.55,3.892,3.892,0,0,0,.495,1.65q1.21,2.64,2.86,2.64a7.419,7.419,0,0,0,2.97-.77l-1.155,6.71-1.6,7.26-1.32,4.62a6.541,6.541,0,0,0-.055.99,5.652,5.652,0,0,0,1.1,3.355q.935,1.21,1.6,1.21,1.045,0,1.98-2.2a16.981,16.981,0,0,0,1.155-5.28l.11-1.21q.11-.66.165-1.32.22-1.65.44-3.19l1.76-12.76a19.034,19.034,0,0,0,4.51-3.8,5.68,5.68,0,0,0,1.32-3.63,4.819,4.819,0,0,0-1.1-3.19,3.282,3.282,0,0,0-2.585-1.32,3.565,3.565,0,0,0-2.365,1.43,10.334,10.334,0,0,0-1.98,3.135,30.986,30.986,0,0,0-1.485,4.95,20.265,20.265,0,0,1-4.07.935A5.939,5.939,0,0,1-154.6-31.24Zm10.89-2.035.055-.275v-.33l.055-.275.055-.275V-34.6l.055-.055V-34.7a9.441,9.441,0,0,1,.935-3.3q.66-1.375,1.375-1.375,1.43,0,1.43,1.98Q-139.755-35.09-143.715-33.275Zm6.1,11.66a.83.83,0,0,0,.5.22.731.731,0,0,0,.44-.165,11.1,11.1,0,0,1,5.005-1.1l-1.6,3.245h.385a8,8,0,0,1,6.05-3.41,13.984,13.984,0,0,0,3.025-.275,1.031,1.031,0,0,0,.66-1.045,2.106,2.106,0,0,0-1.1-1.65,3.89,3.89,0,0,0-2.255-.77,15.491,15.491,0,0,0-5.28,1.155,19.15,19.15,0,0,0-5.115,2.75A1.853,1.853,0,0,0-137.61-21.615Zm3.465-16.94.55.5.55.55,1.32,1.21a.982.982,0,0,1,.275.275.158.158,0,0,1,.11.055q1.76,2.09,2.75,2.09,1.485,0,1.485-1.7a2.888,2.888,0,0,0-1.43-2.42,5.937,5.937,0,0,0-3.465-.99A6.747,6.747,0,0,0-134.145-38.555Zm.935,22.055a1.167,1.167,0,0,0-.55.715,9.753,9.753,0,0,0-.11,1.87q0,4.015,3.685,7.2,3.245,2.86,5.39,2.86,2.035,0,2.035-1.6,0-1.87-2.53-3.3l-3.3-1.815A10.232,10.232,0,0,1-133.21-16.5Zm2.86-23.76a.861.861,0,0,1,.22.165,16.624,16.624,0,0,1,1.98,1.155l3.245,2.475a2.183,2.183,0,0,0,.99.22q1.21,0,1.21-1.43a3.08,3.08,0,0,0-1.54-2.475,5.734,5.734,0,0,0-3.41-1.1,5.892,5.892,0,0,0-2.7.825Zm28.16,19.25a5.9,5.9,0,0,0,.275,1.87q.88,1.98,2.09,1.98a3.628,3.628,0,0,0,1.815-.935q1.1,2.09,1.6,3.3.44,1.1,1.1,3.08,1.98,6,4.455,5.995,1.155,0,1.155-1.485,0-.99-.165-3.135-.22-1.98-.495-4.4A40.823,40.823,0,0,1-90.75-20.4v-.88q0-.605.055-1.155l.88-.5,2.86-1.485a24.725,24.725,0,0,1,11.44-3.135A5.622,5.622,0,0,1-71.72-26.18a4.5,4.5,0,0,1,1.54,3.41q0,3.3-2.805,7.37a12.526,12.526,0,0,1-2.145,2.475,18.757,18.757,0,0,1-3.245,2.2.612.612,0,0,1,.275.055h.275a.158.158,0,0,1,.11.055h.275q3.685,0,7.92-3.52,4.07-3.52,4.07-7.81a7.153,7.153,0,0,0-2.805-5.94,12.218,12.218,0,0,0-7.645-2.2,27.168,27.168,0,0,0-6.27.715,68.178,68.178,0,0,0-8.195,2.64l.165-2.585q2.805-3.575,2.805-4.73,0-.825-1.65-1.32a21.3,21.3,0,0,0,.495-4.18q0-2.365-2.86-6.49h-.22l-.22.22L-93.28-34.32a25.38,25.38,0,0,0-6,3.8,12.667,12.667,0,0,1-1.045.935.982.982,0,0,1-.275.275.158.158,0,0,0-.055.11h-.055q-.55.495-.55.715v.275q.33-.055.825-.165a.9.9,0,0,1,.275-.055.158.158,0,0,0,.11-.055h.11a11.483,11.483,0,0,0,2.2-.44,16.947,16.947,0,0,0,2.255-1.21,1.222,1.222,0,0,1,.385-.165l.44-.22,1.21-.55-.165.99a48.658,48.658,0,0,1-5.28,6.71,10.886,10.886,0,0,1-1.43,1.265A15.85,15.85,0,0,1-102.19-21.01Zm4.84,2.475a29.551,29.551,0,0,1,3.245-1.98v.825a18.284,18.284,0,0,1-.44,4.18A11.386,11.386,0,0,1-97.35-18.535ZM-27-38.445a20.563,20.563,0,0,1-2.42,4.73l-3.3,5.115q-3.63,5.665-6.985,8.03-1.485,1.045-1.98,1.485,0,4.785,2.035,4.785.935,0,2.75-2.09a15.96,15.96,0,0,1,5.775-3.96,17.472,17.472,0,0,1,6.985-1.7,5.982,5.982,0,0,1,3.85,1.32,3.652,3.652,0,0,1,1.705,2.97q0,3.19-4.4,6.765-2.805-4.235-5.555-4.235a2.262,2.262,0,0,0-1.375.495q-.66.5-2.97,2.7a3.3,3.3,0,0,0-1.21,1.98q0,1.265,2.64,2.365a15.4,15.4,0,0,0,5.72,1.045,11.6,11.6,0,0,0,8.14-2.97,9.785,9.785,0,0,0,3.19-7.48,6.911,6.911,0,0,0-3.025-5.775,12.3,12.3,0,0,0-7.645-2.255,25.743,25.743,0,0,0-7.15,1.43q2.255-3.41,4.455-6.1l5.17-6.38q2.2-2.64,2.2-3.3,0-1.43-3.74-2.145a5.456,5.456,0,0,0-1.1-.22,16.075,16.075,0,0,0-4.455,1.32,30.272,30.272,0,0,1-6.215,1.485,5.536,5.536,0,0,0,4.62,2.2A9.02,9.02,0,0,0-27-38.445Zm-4.345,27.39q1.265-1.98,2.145-1.98.77,0,2.365,3.08a1.93,1.93,0,0,1-.55.055h-.165Q-30.525-9.9-31.35-11.055Zm-295.735,81.41q2.2,1.98,3.795,1.98a3.761,3.761,0,0,0,1.6-.33q.66-.33,2.915-1.87a9.569,9.569,0,0,1,1.925-1.155q.275-.11.605-.275h.055a.158.158,0,0,1,.11-.055.049.049,0,0,0,.055-.055h.055a.83.83,0,0,1,.495-.22q.33,0,.33.385a2.8,2.8,0,0,1-.385.935l-2.64,3.9q-.055.055-.5.605-.88,1.1-1.815,2.31-.605.77-1.87,2.42-1.1,1.375-1.6,1.98t-1.7,2.145a8.726,8.726,0,0,0-.165,1.6,4.345,4.345,0,0,0,.55,2.145q.6.99,1.21.99t1.485-1.265q.385-.605.825-1.32.275-.44.77-1.32a22.348,22.348,0,0,1,4.51-5.61,14.848,14.848,0,0,1,.22,2.255,25.322,25.322,0,0,1-.165,2.64q-.11,1.265-.33,2.97l-1.21,7.59V94a6.825,6.825,0,0,0,1.76,4.18q.935,1.155,1.6,1.155,1.375,0,1.265-4.455l-.055-7.315q-.055-7.7,2.31-11.33a7.18,7.18,0,0,1-.11,1.375q-.055.55-.11,1.155a5.075,5.075,0,0,0-.055.715.905.905,0,0,0-.055.275v.11a5.368,5.368,0,0,0,2.09,4.125l.11.11a2.393,2.393,0,0,0,.935.55q.715,0,.825-.99,0-.385-.33-4.07v-.33q0-1.87,1.815-6.38l-2.42,3.52a3.956,3.956,0,0,1,.275-1.32l1.155-2.805v-.055h-.055v-.11h-.055V72.06L-307.12,72a3.951,3.951,0,0,0-3.41,1.485l-1.76,2.255a.951.951,0,0,1-.77.44.317.317,0,0,1-.22-.11l-.88-.935a2.682,2.682,0,0,0-.825-.275l4.4-5.995a6.534,6.534,0,0,0,1.54-2.97q0-1.21-3.025-1.21a8.172,8.172,0,0,0-2.145.22q-.825.275-3.08,1.32l-5.665,2.7-.44.22a9.921,9.921,0,0,1-3.575.99Zm9.79-8.635a15.452,15.452,0,0,1,3.41-1.65,11,11,0,0,1,2.585-.66l2.695-.22q1.87-.11,1.87-1.485,0-1.155-1.705-1.98a8.906,8.906,0,0,0-4.015-.825q-3.63,0-4.07,1.21a20.221,20.221,0,0,1,3.245,1.815,5.438,5.438,0,0,1-1.76,1.87,14.806,14.806,0,0,0-1.7,1.045A3.046,3.046,0,0,0-317.3,61.72Zm11.88,27.335a1.034,1.034,0,0,0,.66.275,5.674,5.674,0,0,0,1.76-.385,12.718,12.718,0,0,0,3.08-1.32,15.382,15.382,0,0,0,2.53-2.585q6.27-7.755,6.27-11.22,0-1.7-3.85-2.695,3.9-2.475,6.49-2.475,2.365,0,2.365,2.97a33.548,33.548,0,0,1-.44,4.07q-.55,3.08-1.265,6.38a35.98,35.98,0,0,1-1.1,4.29l-.715,1.705q-1.1,2.75-2.09,2.75-2.09,0-6.38-3.9a.766.766,0,0,0-.055.33.435.435,0,0,0,.055.275l1.65,1.705,4.785,6.435a3.318,3.318,0,0,0,2.64,1.485q.935,0,1.98-1.54a25.231,25.231,0,0,0,2.365-4.785,37.846,37.846,0,0,0,1.87-5.665A63.814,63.814,0,0,0-280.885,72q0-5.445-6.985-5.445a29.92,29.92,0,0,0-15.95,4.565,11.646,11.646,0,0,0,4.345.99,16.03,16.03,0,0,0,3.135-.44,5.872,5.872,0,0,1,.33,1.43,15.033,15.033,0,0,1-1.7,5.28l-1.43,2.86a23.614,23.614,0,0,1-2.2,3.52A24.354,24.354,0,0,1-305.415,89.055Zm38.28-14.96-2.2-5.115q-1.375-1.925-1.65-1.925l-.22,1.54-.055,3.9a12.429,12.429,0,0,0,1.265,6.215q2.42,4.565,4.84,4.565,1.045,0,1.045-1.265a7.022,7.022,0,0,0-.715-2.805Zm-.99-3.85a7.619,7.619,0,0,0,3.19.605,8.651,8.651,0,0,0,3.355-.77,11.154,11.154,0,0,1-.935,3.575,14.322,14.322,0,0,1-2.475,3.08q.99,2.86,2.145,2.86a5.2,5.2,0,0,0,2.365-1.43,18.947,18.947,0,0,0,4.345-4.785l2.035-3.74a3.494,3.494,0,0,0,.5-1.32,1.808,1.808,0,0,0-.055-.44,25.883,25.883,0,0,1-3.63,3.575q.165-.5.385-1.045a.422.422,0,0,1,.055-.165,11.953,11.953,0,0,0,.825-1.815A1.712,1.712,0,0,0-257.07,67a5.372,5.372,0,0,0-2.53-.55,7.608,7.608,0,0,0-3.41.88l-4.235,2.035A1.305,1.305,0,0,0-268.125,70.245Zm5.115,19.69a3.91,3.91,0,0,0,2.2.55,10.611,10.611,0,0,0,5.775-1.705A48.248,48.248,0,0,0-247.5,81.9l1.43.5.11,1.87v1.045l-.165,5.555a4.19,4.19,0,0,1-.385,2.035q-.33.44-1.6.44a10.761,10.761,0,0,1-2.805-.385,41.281,41.281,0,0,1-4.18-1.485h-.5v.22q.44.385,1.1.88.55.5.715.66l4.565,3.245,3.575,3.19a4.48,4.48,0,0,0,2.86,1.375q1.65,0,1.54-2.585v-.935q0-.55-.055-1.1a5.806,5.806,0,0,0-.055-1.045l-.605-8.085-.165-3.41q3.96,1.7,5.885,2.75a56.418,56.418,0,0,1,5.005,3.355,1.766,1.766,0,0,1-1.21.77q-.33.11-1.21.44l-1.21.44v.33a21.2,21.2,0,0,1,3.85-.605q.275,0,.825.055a.488.488,0,0,0,.22.055q4.785.99,4.9.99,1.485,0,1.485-1.65t-3.85-3.96a45.836,45.836,0,0,0-9.845-4.18q-.715-.22-1.43-.5-.77-.275-1.6-.55-.99-.33-1.925-.66l-.11-5.555a42.505,42.505,0,0,1,5.06-.44q.715,0,1.6.055.5.055,1.6.165h.165a13.2,13.2,0,0,0,1.87.22q1.98,0,1.98-1.32,0-1.1-1.925-2.145l-3.8-2.035a7.969,7.969,0,0,0-1.21-.55h-.165v.055h-.11a5.715,5.715,0,0,1,1.375,2.035q-1.98.385-3.025.495-1.1.165-3.19.275l.275-3.96q2.695-1.54,3.41-1.925a13.551,13.551,0,0,1,1.375-.825q.605-.385.77-.495,1.76-.99,1.76-1.6,0-.44-.935-1.045a4.1,4.1,0,0,0-2.42-.88,13.28,13.28,0,0,0-3.355.6l.11-.99a6.672,6.672,0,0,1,.055-.825v-.44a1.616,1.616,0,0,0,.055-.385V59.19a8.962,8.962,0,0,0,.11-1.155,3.768,3.768,0,0,0-1.925-3.245,9.245,9.245,0,0,0-5.06-1.265v.22a6.074,6.074,0,0,1,1.43,4.125v5.94q-.77.275-1.54.6l-.88.33-1.375.55q-1.815.715-1.815.99,0,.33,1.155.6a10.416,10.416,0,0,0,2.42.275h.935q.66-.055,1.265-.11v1.21a45.4,45.4,0,0,1-5.72,5.39,9.131,9.131,0,0,1-4.29,1.54l-.11.11q.935,3.85,2.86,3.85a8.2,8.2,0,0,0,3.85-1.65,38.211,38.211,0,0,1-3.245,4.07,45.89,45.89,0,0,1-4.565,4.51A62.694,62.694,0,0,1-263.01,89.935Zm12.87-16.06,2.09-1.265,1.815-1.21.11,1.54ZM-217.525,87.9a3.87,3.87,0,0,0,.825.165l2.2-.33,4.18-.11a16.874,16.874,0,0,0,3.685-1.32q.33-.165,1.375-.605.33-.11.715-.275a33.036,33.036,0,0,1-2.475,4.29,17.756,17.756,0,0,1-2.695,2.86,6.333,6.333,0,0,1-3.63,1.43,4.859,4.859,0,0,0,3.3.935q5.115,0,8.69-5.72a11.338,11.338,0,0,1,2.86-.44q1.32,0,1.32,1.045a2.326,2.326,0,0,1-.66,1.485,26.36,26.36,0,0,1-2.695,2.475l-.11.44a9.428,9.428,0,0,0,2.64-1.65,7.922,7.922,0,0,1,2.145-1.1q3.795-1.265,3.795-2.585a2.743,2.743,0,0,0-1.32-2.145,4.931,4.931,0,0,0-2.915-.935,9.93,9.93,0,0,0-4.015,1.43l1.87-4.29q3.795-1.1,5.775-1.54a20.487,20.487,0,0,1,3.795-.385h1.1V90.54a14.989,14.989,0,0,1-.55,5.06,2.363,2.363,0,0,1-2.365,1.265,12.274,12.274,0,0,1-3.9-.6,34.537,34.537,0,0,1-5.06-2.365h-.11q.22,1.485,3.685,3.465l3.96,2.42,3.025,1.485a21.428,21.428,0,0,0,3.19,1.54,2.386,2.386,0,0,0,2.035-1.32,5.52,5.52,0,0,0,.88-3.135q0-.275-.055-.825a4.008,4.008,0,0,0-.055-.66,8.958,8.958,0,0,0-.055-.99q-.11-.88-.22-1.87-.055-.715-.165-1.87-.055-.5-.055-2.53,0-3.245.11-4.73.11-1.595.55-4.235h1.54a40.994,40.994,0,0,1,7.92.66,26.6,26.6,0,0,0,4.345.715q1.265,0,1.265-1.21a2.359,2.359,0,0,0-1.045-1.65,7.788,7.788,0,0,0-4.84-2.255q-.165,0-1.815.275a8.509,8.509,0,0,1-1.43.165,2.8,2.8,0,0,1-.55.055q-.5,0-1.485.055-1.045,0-1.54.055-.385,0-1.65.055a6.672,6.672,0,0,1-.825.055q-1.65-3.685-6.765-3.685h-.605a5.366,5.366,0,0,0,1.375,1.705,4.776,4.776,0,0,1,.99,2.475q-2.64.385-4.345.66-1.6.22-4.84.825.33-1.045.66-1.925.275-.715.55-1.485.33-.935.66-1.925h.055q1.87-.55,2.585-.77a21.2,21.2,0,0,1,2.09-.44,56.44,56.44,0,0,1,6.215-.88h.33l2.145.11,3.465-.6-.22-.605a4.051,4.051,0,0,0-1.485-1.32,9.036,9.036,0,0,0-3.52-1.265,21.117,21.117,0,0,0-3.795.88q-.605.165-1.43.33-1.045.22-2.2.385-.5.055-1.925.33a7.079,7.079,0,0,1-.935.165.69.69,0,0,0,.275-.165q1.98-.99,2.585-1.265,2.97-1.265,3.52-1.54.44-.275,1.65-1.21a1.566,1.566,0,0,0-.935-1.265,8.36,8.36,0,0,0-2.97-.44,16.63,16.63,0,0,1-3.025,1.1l.22-.66q1.32-.605,1.98-.88.99-.44,1.65-.66a15.137,15.137,0,0,0,1.87-.88q2.09-1.1,2.09-2.035,0-.55-.77-1.045a2.957,2.957,0,0,0-1.65-.55,12.188,12.188,0,0,0-3.135.5,4.756,4.756,0,0,0,.99-2.31,3.2,3.2,0,0,0-1.815-2.585,7.7,7.7,0,0,0-4.125-1.155h-.6a5.045,5.045,0,0,1,1.1,2.365,8.212,8.212,0,0,1-.44,2.255q-.055.275-.275,1.045-.11.495-.275,1.045-.165.66-.275,1.265-2.31.715-3.795,1.1-.77.22-1.815.5-1.1.33-2.255.6v.385a7.479,7.479,0,0,0,2.475.88,38.374,38.374,0,0,0,4.455.165l-.165.6a14.4,14.4,0,0,1-3.19,1.54,19.916,19.916,0,0,1-3.795,1.1,2.3,2.3,0,0,0-.11.385,2.273,2.273,0,0,0,.275.715l.33.88a1.909,1.909,0,0,0,1.87,1.21,9.154,9.154,0,0,0,3.41-.99l-.055.275q-5.445,2.8-7.315,3.575a16.421,16.421,0,0,1-4.015.935q1.6,3.3,3.52,3.3a6.672,6.672,0,0,0,2.75-1.045,13.413,13.413,0,0,1,1.265-.6q.825-.44,1.705-.825a24.586,24.586,0,0,1-1.815,4.84,62.74,62.74,0,0,0-14.74,6.325Zm59.4-23.1a13.467,13.467,0,0,0,4.9,1.65,17.876,17.876,0,0,0,5.775-1.375l5.225-1.925a33.069,33.069,0,0,1,11.275-2.42,2.706,2.706,0,0,1,2.53,1.1,9.849,9.849,0,0,1,.715,4.345l.275,6.985v5.72l.22,8.58v3.85a2.212,2.212,0,0,1-2.475,2.53,12.788,12.788,0,0,1-4.07-.66l-3.74-1.32q-.275-.055-1.32-.385-.715-.165-1.43-.385l-.11.22a.049.049,0,0,1,.055.055h.055a.049.049,0,0,0,.055.055h.055v.055h.055l3.19,1.76,5.335,3.85q4.125,2.915,7.04,2.915t2.915-4.455v-.99a7.243,7.243,0,0,0-.055-.99l-.55-6.93-.11-9.405.275-12.76q.11-6.215-7.15-6.215-6.82,0-18.26,2.86a60.255,60.255,0,0,0-5.995,1.65A50.6,50.6,0,0,0-158.125,64.8Zm8.69,10.78a11.227,11.227,0,0,0-1.265,5.06,8.314,8.314,0,0,0,1.265,4.84,3.726,3.726,0,0,0,3.245,1.815h.22a.049.049,0,0,0,.055-.055h.33a3.067,3.067,0,0,0,.385-1.32,4.511,4.511,0,0,0-.165-.935,6.929,6.929,0,0,0,1.21.165,6.064,6.064,0,0,0,2.255-.55l-2.035,2.145.11.275a14.29,14.29,0,0,1,4.18-2.75,22.528,22.528,0,0,0,3.465-1.485,1.535,1.535,0,0,0,.66-1.375q0-.88-1.815-1.6a7.186,7.186,0,0,1,.99-1.485q1.705-2.145,1.705-2.75,0-1.925-2.2-1.925a21.528,21.528,0,0,0-5.225.935,21.969,21.969,0,0,0-3.08.99,13.616,13.616,0,0,0-2.53,1.54l.055.33a19.963,19.963,0,0,0,3.135.385,10.076,10.076,0,0,0,4.455-1.7,5.207,5.207,0,0,1-1.54,3.19,12.259,12.259,0,0,1-4.73,3.41,16.95,16.95,0,0,1-1.705-3.355,19.457,19.457,0,0,1-.935-3.795ZM-150.7,71.4h.99q.22,0,1.21.055a5.077,5.077,0,0,0,.715.055q.33,0,.99.055h.495a6.472,6.472,0,0,0,2.145-.385,15.82,15.82,0,0,1-1.815,1.65,3.947,3.947,0,0,0-1.6,1.87,1.882,1.882,0,0,0,.935-.6,11.191,11.191,0,0,1,5.39-2.97q4.455-1.43,5.28-1.815.88-.385.88-.99,0-1.87-2.255-1.87a20.178,20.178,0,0,0-5.005.935,41.231,41.231,0,0,0-5.995,2.145Q-150.48,70.465-150.7,71.4Zm44.11,16.665a23.918,23.918,0,0,0,4.785-.385,13.707,13.707,0,0,0,4.07-1.54,30.545,30.545,0,0,0,4.4-3.355q2.145-1.98,5.885-5.83l2.2.44-.22,8.965q-1.65.5-2.64.77-1.485.385-3.52.935l-1.155.22a.224.224,0,0,0-.055.165.049.049,0,0,0-.055.055q0,.715,1.6,1.155a15.657,15.657,0,0,0,4.07.44h.66q.605-.055.935-.055V91.2q-.44.33-1.045.88a.862.862,0,0,1-.22.165.158.158,0,0,0-.055.11.158.158,0,0,0-.11.055q-1.21,1.21-1.375,1.32A4.673,4.673,0,0,0-89.87,95h.11a1.676,1.676,0,0,0,1.045-.385,34.046,34.046,0,0,1,2.97-1.98v1.65q-.165,2.7-.165,3.08a6.1,6.1,0,0,0,.88,2.64q1.76,3.025,3.08,3.025,1.1,0,1.1-2.42v-.275l-.055-.055v-.165l-.22-1.76-.33-8.36.88-.44a16.215,16.215,0,0,1,2.97-1.265,17.074,17.074,0,0,0,1.7-.605q2.035-.825,2.035-1.485a1.74,1.74,0,0,0-.165-.385,8.873,8.873,0,0,0-3.795-1.045,18.245,18.245,0,0,0-3.85.44V80.86q-.055-1.375-.11-2.695a22.95,22.95,0,0,1,5.225,1.54q2.585,1.1,8.14,4.07a17.981,17.981,0,0,1-2.035.88q-.66.22-2.42.77a.422.422,0,0,1-.165.055l.275.275a12.009,12.009,0,0,1,2.695-.33q.825,0,1.815.055,1.21.055,2.145.165a17.016,17.016,0,0,1,4.84.99,5.281,5.281,0,0,0,2.035.495q1.54,0,1.54-1.43,0-1.87-6.82-5.06a56.62,56.62,0,0,0-8.03-3.245,77.6,77.6,0,0,0-9.13-2.035q-.055-.77-.11-1.65v-1.1q0-.825.055-2.145.055-.99.22-2.915l3.135-.5q.385-.055.99-.165h.275a.488.488,0,0,1,.22-.055,17.447,17.447,0,0,0,3.795-.5q.99-.275.99-.99,0-.55-1.155-1.43a4.908,4.908,0,0,0-3.025-.99,5.438,5.438,0,0,0-.77.055l-2.255.385a10.664,10.664,0,0,1-1.705.33q.11-1.265.275-2.585a10.942,10.942,0,0,1,.165-1.155l.11-.99a1.808,1.808,0,0,1,.055-.44,4.738,4.738,0,0,0,.055-.77q0-2.8-3.575-3.96a14.307,14.307,0,0,0-2.695-.77q-.33,0-.6.44a10.265,10.265,0,0,1,1.43,2.7,14.314,14.314,0,0,1,.385,3.465l.055,5.335-7.425,2.31a9.517,9.517,0,0,1-1.87.44q-2.7.33-2.695.935,0,.275.88.6l2.31.935a4.412,4.412,0,0,0,1.6.275,21.076,21.076,0,0,0,4.84-.99,51.606,51.606,0,0,1-4.125,6.05,60.829,60.829,0,0,1-5.665,5.83A45.568,45.568,0,0,1-106.59,88.065Zm54.065,7.1h.22v.055h.11q1.485,0,4.18-1.815,4.4-3.08,6.985-12.045L-39.1,74.7a63.578,63.578,0,0,1,2.695-6.875,37.951,37.951,0,0,1,7.7-2.255,67.825,67.825,0,0,1,9.79-.55h5.17q2.145.11,2.145-1.155,0-.825-1.6-1.54l-2.2-.88a5.867,5.867,0,0,0-2.475-.44,4.984,4.984,0,0,0-.88.055l-1.87.385-8.47,1.43-5.39,1.155-7.59,1.54-2.2.44-1.76.165h-.055v.055h-.055a.049.049,0,0,0-.055.055h-.055v.055h-.055l-.055.055v.275A24.092,24.092,0,0,0-41.8,68.485q-.55,1.87-1.155,3.795l-.44,1.54q-.935,3.08-1.32,4.18l-1.54,4.455A8.787,8.787,0,0,1-46.64,83.5q-.165.55-.385,1.1-.385,1.155-.77,2.09a36.2,36.2,0,0,1-2.915,6.05,15.693,15.693,0,0,1-1.265,1.705Q-52.25,94.83-52.525,95.16ZM-37.51,86.8v.11h-.055v.055a19.289,19.289,0,0,0-.44,4.29A9.352,9.352,0,0,0-35.64,97.91q2.09,2.255,3.465,2.255,1.54,0,1.54-1.87,0-1.045-1.815-3.41a21.779,21.779,0,0,1-1.43-2.145l-1.375-2.31a8.994,8.994,0,0,1-1.155-2.365Q-36.685,86.91-37.51,86.8Zm3.52-31.46a22.486,22.486,0,0,1,3.41,1.43q.935.6.935,1.265,0,.44-1.21,1.43a13.447,13.447,0,0,1-2.7,1.705h.055v.055h.165a5.824,5.824,0,0,0,1.705-.605,10.261,10.261,0,0,1,2.2-.55,1.616,1.616,0,0,1,.385-.055,2.907,2.907,0,0,1,.99-.11h2.86q1.265,0,1.265-1.485,0-1.54-2.09-2.915a8.658,8.658,0,0,0-4.62-1.32A4.218,4.218,0,0,0-33.99,55.34Zm.22,31.9.22.165a11.641,11.641,0,0,0,4.125-3.41,31.971,31.971,0,0,0,3.63-6.875q.33.055.715.11.935.22,1.265.275a11.793,11.793,0,0,0,2.97.385,5.121,5.121,0,0,0,2.42-.55q1.1-.495,1.1-1.155,0-.44-1.21-1.32a4.955,4.955,0,0,0-3.08-1.1,2.491,2.491,0,0,0-.88.165l-1.265.44q-.66.165-1.265.275a9.05,9.05,0,0,0,.33-2.255q0-1.43-1.925-2.475a10.393,10.393,0,0,0-4.785-.99l-.11.275a4.517,4.517,0,0,1,1.6,3.08,24.442,24.442,0,0,1-.77,6.05A82.878,82.878,0,0,1-33.77,87.24Zm.11,1.155a10.135,10.135,0,0,0,4.015,1.32,17.9,17.9,0,0,0,4.18-.99A11.7,11.7,0,0,1-21.78,87.9h.275a.049.049,0,0,0,.055.055h.165l.88.33-2.31,2.915q-2.145,2.86-7.7,4.125,1.375,3.135,2.64,3.135a9.941,9.941,0,0,0,1.375-.165q.22,0,.825-.055a2.549,2.549,0,0,1,.5-.055,15.7,15.7,0,0,1-4.07,2.695v.385a28.347,28.347,0,0,1,3.355-1.485l2.09-.715a17.215,17.215,0,0,1,3.685-1.1q3.63-.55,3.63-1.815,0-1.43-3.025-2.145,1.045-.88,2.42-1.87,3.135-2.31,3.135-3.74,0-1.21-1.925-2.145a9.817,9.817,0,0,0-4.345-.935,29.182,29.182,0,0,0-6.05.6,65.106,65.106,0,0,0-7.48,2.255Z" transform="translate(668.9 53.58)" fill="#fff" stroke="#fff" stroke-width="1"/>
  </g>
</svg>
